<svg id="Layer_1" enable-background="new 0 0 256 256" height="512" viewBox="0 0 256 256" width="512" xmlns="http://www.w3.org/2000/svg"><ellipse cx="178" cy="78.146" fill="#d7e057" rx="40.641" ry="40.641" transform="matrix(.383 -.924 .924 .383 37.685 212.692)"/><g fill="#3a312a"><path d="m178 36.006c-23.236 0-42.141 18.904-42.141 42.141 0 23.236 18.904 42.141 42.141 42.141 23.236 0 42.141-18.904 42.141-42.141s-18.905-42.141-42.141-42.141zm0 81.281c-21.582 0-39.141-17.559-39.141-39.141s17.559-39.141 39.141-39.141 39.141 17.559 39.141 39.141c0 21.583-17.559 39.141-39.141 39.141z"/><path d="m177.746 15.022c-.829 0-1.5.671-1.5 1.5v8.149c0 .829.671 1.5 1.5 1.5s1.5-.671 1.5-1.5v-8.149c0-.829-.672-1.5-1.5-1.5z"/><path d="m178.254 130.123c-.829 0-1.5.671-1.5 1.5v8.149c0 .829.671 1.5 1.5 1.5s1.5-.671 1.5-1.5v-8.149c0-.829-.671-1.5-1.5-1.5z"/><path d="m222.456 33.331c-.586-.586-1.535-.586-2.121 0l-5.762 5.762c-.586.585-.586 1.535 0 2.121.293.293.677.439 1.06.439s.768-.146 1.06-.439l5.762-5.762c.587-.586.587-1.535.001-2.121z"/><path d="m141.427 115.08c-.586-.586-1.535-.586-2.121 0l-5.762 5.762c-.586.586-.586 1.535 0 2.121.293.293.677.44 1.061.44s.768-.146 1.06-.44l5.762-5.762c.586-.586.586-1.535 0-2.121z"/><path d="m239.625 76.392h-8.149c-.829 0-1.5.671-1.5 1.5s.671 1.5 1.5 1.5h8.149c.829 0 1.5-.671 1.5-1.5s-.671-1.5-1.5-1.5z"/><path d="m124.524 76.901h-8.149c-.829 0-1.5.671-1.5 1.5s.671 1.5 1.5 1.5h8.149c.829 0 1.5-.671 1.5-1.5s-.672-1.5-1.5-1.5z"/><path d="m222.816 120.481-5.762-5.762c-.586-.586-1.535-.586-2.121 0-.586.585-.586 1.535 0 2.121l5.762 5.762c.293.293.677.439 1.061.439s.768-.146 1.061-.439c.585-.585.585-1.535-.001-2.121z"/><path d="m141.067 39.453-5.762-5.762c-.586-.586-1.535-.586-2.121 0s-.586 1.535 0 2.121l5.762 5.762c.293.293.677.44 1.06.44.384 0 .768-.147 1.061-.44.586-.586.586-1.535 0-2.121z"/></g><path d="m51.47 211.918c-3.4 0-9.351 12.546-9.351 17.71s4.187 9.351 9.351 9.351 9.351-4.187 9.351-9.351-5.809-17.71-9.351-17.71z" fill="#8ac6dd"/><path d="m58.815 218.165c-1.771-3.534-4.482-7.747-7.345-7.747-4.821 0-10.851 13.928-10.851 19.21 0 5.983 4.868 10.851 10.851 10.851s10.851-4.868 10.851-10.851c0-3.296-1.888-8.235-3.506-11.463zm-7.345 19.314c-4.329 0-7.851-3.522-7.851-7.851 0-5.058 5.724-16.029 7.851-16.21 1.854 0 7.851 10.719 7.851 16.21 0 4.329-3.522 7.851-7.851 7.851z" fill="#3a312a"/><path d="m102.49 211.918c-3.4 0-9.351 12.546-9.351 17.71s4.187 9.351 9.351 9.351 9.351-4.187 9.351-9.351-5.809-17.71-9.351-17.71z" fill="#8ac6dd"/><path d="m109.835 218.165c-1.771-3.534-4.483-7.747-7.345-7.747-4.821 0-10.851 13.928-10.851 19.21 0 5.983 4.868 10.851 10.851 10.851s10.851-4.868 10.851-10.851c0-3.296-1.889-8.235-3.506-11.463zm-7.345 19.314c-4.329 0-7.851-3.522-7.851-7.851 0-5.058 5.724-16.029 7.851-16.21 1.854 0 7.851 10.719 7.851 16.21 0 4.329-3.522 7.851-7.851 7.851z" fill="#3a312a"/><path d="m153.51 211.918c-3.4 0-9.351 12.546-9.351 17.71s4.187 9.351 9.351 9.351 9.351-4.187 9.351-9.351-5.809-17.71-9.351-17.71z" fill="#8ac6dd"/><path d="m160.854 218.165c-1.771-3.534-4.482-7.747-7.345-7.747-4.821 0-10.851 13.928-10.851 19.21 0 5.983 4.868 10.851 10.851 10.851s10.851-4.868 10.851-10.851c.001-3.296-1.888-8.235-3.506-11.463zm-7.344 19.314c-4.329 0-7.851-3.522-7.851-7.851 0-5.058 5.723-16.029 7.851-16.21 1.854 0 7.851 10.719 7.851 16.21 0 4.329-3.522 7.851-7.851 7.851z" fill="#3a312a"/><path d="m204.53 211.918c-3.4 0-9.351 12.546-9.351 17.71s4.187 9.351 9.351 9.351 9.351-4.187 9.351-9.351-5.809-17.71-9.351-17.71z" fill="#8ac6dd"/><path d="m211.875 218.165c-1.771-3.534-4.482-7.747-7.345-7.747-4.821 0-10.851 13.928-10.851 19.21 0 5.983 4.868 10.851 10.851 10.851s10.851-4.868 10.851-10.851c0-3.296-1.889-8.235-3.506-11.463zm-7.345 19.314c-4.329 0-7.851-3.522-7.851-7.851 0-5.058 5.724-16.029 7.851-16.21 1.854 0 7.851 10.719 7.851 16.21 0 4.329-3.522 7.851-7.851 7.851z" fill="#3a312a"/><path d="m47.911 26.199c-.974 11.564-13.024 13.389-13.024 13.389 10.347.487 12.925 14.059 12.925 14.059.221-9.677 13.321-14.202 13.321-14.202-9.814-.587-13.222-13.246-13.222-13.246z" fill="#d7e057"/><path d="m61.222 37.947c-8.604-.514-11.832-12.024-11.863-12.14-.19-.702-.847-1.164-1.583-1.102-.725.066-1.298.642-1.359 1.367-.86 10.215-11.313 11.963-11.754 12.032-.763.115-1.313.79-1.273 1.561.04.77.657 1.384 1.428 1.421 9.028.425 11.498 12.719 11.522 12.843.137.711.759 1.217 1.472 1.217.042 0 .084-.002.126-.005.764-.064 1.357-.693 1.375-1.459.194-8.509 12.191-12.777 12.313-12.819.675-.235 1.092-.914.994-1.623-.1-.709-.684-1.25-1.398-1.293zm-13.565 10.347c-1.357-3.131-3.709-6.908-7.587-8.877 2.931-1.404 6.409-3.913 8.202-8.273 1.551 3.071 4.2 6.88 8.334 8.722-3.008 1.64-6.923 4.406-8.949 8.428z" fill="#3a312a"/><path d="m26.212 43.179c-.688 8.179-9.212 9.471-9.212 9.471 7.318.344 9.142 9.944 9.142 9.944.156-6.844 9.422-10.045 9.422-10.045-6.941-.416-9.352-9.37-9.352-9.37z" fill="#d7e057"/><path d="m35.654 51.051c-5.766-.345-7.972-8.185-7.994-8.264-.191-.702-.856-1.164-1.582-1.102-.726.065-1.299.642-1.36 1.368-.579 6.87-7.646 8.066-7.942 8.113-.763.115-1.313.79-1.273 1.561.04.77.657 1.384 1.427 1.421 6.036.284 7.724 8.644 7.739 8.726.135.713.759 1.22 1.472 1.22.042 0 .083-.001.125-.005.765-.064 1.358-.694 1.376-1.461.13-5.709 8.332-8.634 8.413-8.662.677-.234 1.094-.913.996-1.622s-.682-1.25-1.397-1.293zm-9.585 6.795c-.924-1.886-2.34-3.947-4.447-5.28 1.855-1.041 3.697-2.629 4.871-4.916 1.057 1.874 2.654 3.955 4.941 5.224-1.85 1.1-3.989 2.74-5.365 4.972z" fill="#3a312a"/><path d="m26.212 16.521c-.688 8.18-9.212 9.471-9.212 9.471 7.318.344 9.142 9.944 9.142 9.944.156-6.845 9.422-10.045 9.422-10.045-6.941-.415-9.352-9.37-9.352-9.37z" fill="#d7e057"/><path d="m35.654 24.394c-5.767-.345-7.973-8.186-7.994-8.265-.191-.702-.856-1.165-1.582-1.102-.726.065-1.299.642-1.36 1.368-.579 6.871-7.646 8.067-7.942 8.114-.763.115-1.313.79-1.273 1.56s.657 1.384 1.428 1.421c6.035.284 7.723 8.644 7.739 8.726.135.713.759 1.22 1.472 1.22.042 0 .083-.001.125-.005.765-.063 1.358-.694 1.376-1.461.13-5.709 8.331-8.634 8.413-8.662.676-.234 1.094-.913.996-1.622-.099-.708-.683-1.249-1.398-1.292zm-9.585 6.795c-.924-1.885-2.34-3.947-4.447-5.28 1.856-1.041 3.697-2.63 4.871-4.916 1.057 1.873 2.655 3.954 4.941 5.224-1.85 1.1-3.989 2.739-5.365 4.972z" fill="#3a312a"/><path d="m187.356 89.388c-1.266 0-2.517.061-3.76.151-6.776-24.345-29.092-42.215-55.596-42.215-31.878 0-57.72 25.842-57.72 57.72 0 .439.023.872.033 1.308-3.095-.695-6.309-1.074-9.614-1.074-24.134 0-43.699 19.564-43.699 43.699 0 24.134 19.565 43.699 43.699 43.699h17.701 109.657v-.018c28.198-.377 50.943-23.339 50.943-51.627 0-28.522-23.122-51.643-51.644-51.643z" fill="#8ac6dd"/><path d="m187.355 87.888c-.837 0-1.7.025-2.653.077-7.482-24.874-30.623-42.141-56.702-42.141-32.477 0-58.932 26.276-59.218 58.687-2.68-.487-5.391-.733-8.083-.733-24.923 0-45.199 20.276-45.199 45.199s20.276 45.199 45.199 45.199h4.901c.829 0 1.5-.671 1.5-1.5s-.671-1.5-1.5-1.5h-4.901c-23.269 0-42.199-18.931-42.199-42.199 0-23.269 18.931-42.199 42.199-42.199 3.096 0 6.22.349 9.285 1.038.449.101.922-.01 1.279-.303.357-.292.56-.733.549-1.194l-.015-.499c-.009-.258-.018-.515-.018-.775 0-31 25.22-56.22 56.22-56.22 25.144 0 47.413 16.908 54.151 41.117.191.688.85 1.146 1.553 1.094 1.387-.1 2.547-.147 3.651-.147 27.65 0 50.145 22.494 50.145 50.143 0 27.275-22.189 49.763-49.463 50.127-.071.001-.14.007-.208.018h-109.428c-.829 0-1.5.671-1.5 1.5s.671 1.5 1.5 1.5h109.657c.086 0 .169-.007.25-.022 28.802-.508 52.193-24.291 52.193-53.123 0-29.304-23.84-53.144-53.145-53.144z" fill="#3a312a"/><path d="m187.36 90.89c-1.11 0-2.27.04-3.66.14-.7.05-1.36-.4-1.55-1.09-6.74-24.21-29.01-41.12-54.15-41.12-3.24 0-6.43.28-9.52.81 21.1 3.64 38.79 19.2 44.67 40.31.19.69.85 1.14 1.55 1.09 1.39-.1 2.55-.14 3.66-.14 27.65 0 50.14 22.49 50.14 50.14 0 26.66-21.2 48.74-47.62 50.07-.03.03-.06.05-.09.08h17.04c.07-.01.14-.02.21-.02 27.27-.37 49.46-22.85 49.46-50.13 0-27.65-22.49-50.14-50.14-50.14z" fill="#6ca8bf"/></svg>