<svg height="512pt" viewBox="-13 0 512 512" width="512pt" xmlns="http://www.w3.org/2000/svg"><path d="m258.574219 378.539062h-258.574219v30.007813h258.574219c20.25 0 36.722656 16.472656 36.722656 36.722656 0 20.246094-16.472656 36.71875-36.722656 36.71875-20.246094 0-36.71875-16.472656-36.71875-36.71875h-30.011719c0 36.792969 29.933594 66.730469 66.730469 66.730469s66.730469-29.9375 66.730469-66.730469c0-36.796875-29.933594-66.730469-66.730469-66.730469zm0 0" fill="#545ac3"/><path d="m485.472656 318.777344-18.347656-23.746094c-23.414062 18.085938-51.425781 27.644531-81.007812 27.644531h-386.117188v30.011719h258.574219c51.050781 0 92.582031 41.53125 92.582031 92.582031h30.007812c0-36.925781-16.40625-70.089843-42.316406-92.582031h47.269532c36.28125 0 70.640624-11.726562 99.355468-33.910156zm0 0" fill="#dce1eb"/><path d="m162.8125 295.335938h233.949219c41.957031 0 76.085937-34.132813 76.085937-76.089844 0-41.953125-34.128906-76.082032-76.085937-76.082032h-.308594c-6.140625-37.996093-37.347656-67.703124-76.054687-71.546874-6.949219-40.609376-42.40625-71.617188-84.96875-71.617188h-1.417969c-47.535157 0-86.203125 38.671875-86.203125 86.203125v23.117187c-42.675782 7.167969-75.296875 44.375-75.296875 89.054688v6.65625c0 49.792969 40.507812 90.304688 90.300781 90.304688zm0 0" fill="#00aadf"/><path d="m258.574219 408.546875c20.25 0 36.722656 16.472656 36.722656 36.722656 0 20.246094-16.472656 36.71875-36.722656 36.71875-.863281 0-1.722657-.039062-2.574219-.097656v30.042969c.855469.035156 1.710938.066406 2.574219.066406 36.796875 0 66.730469-29.9375 66.730469-66.730469 0-36.796875-29.933594-66.734375-66.730469-66.734375h-2.574219v30.011719zm0 0" fill="#404aa2"/><path d="m221.855469 445.269531h-30.011719c0 35.929688 28.550781 65.304688 64.15625 66.664063v-30.042969c-19.050781-1.328125-34.144531-17.242187-34.144531-36.621094zm0 0" fill="#545ac3"/><path d="m485.472656 318.777344-18.347656-23.746094c-23.414062 18.085938-51.425781 27.644531-81.007812 27.644531h-130.117188v30.011719h2.574219c51.050781 0 92.582031 41.53125 92.582031 92.582031h30.007812c0-36.925781-16.40625-70.089843-42.316406-92.582031h47.269532c36.28125 0 70.640624-11.726562 99.355468-33.910156zm0 0" fill="#b6c4cf"/><path d="m472.847656 219.246094c0-41.953125-34.128906-76.082032-76.085937-76.082032h-.308594c-6.140625-37.996093-37.347656-67.703124-76.054687-71.546874-5.792969-33.84375-31.394532-61.003907-64.398438-69.117188v292.835938h140.761719c41.957031 0 76.085937-34.132813 76.085937-76.089844zm0 0" fill="#007fc5"/></svg>