<?xml version="1.0"?>
<svg xmlns="http://www.w3.org/2000/svg" viewBox="0 0 64 64" width="512" height="512"><g id="foggy"><path d="M12.81,59a5.685,5.685,0,0,0,9.15,0h.81c2.55,0,4.61-1.72,4.61-3.85,0-2.09-2-3.78-4.49-3.84A6.884,6.884,0,0,0,21.25,49a5.608,5.608,0,0,0-7.72,0,6.858,6.858,0,0,0-1.68,2.37,4.2,4.2,0,0,0-.62-.06A3.845,3.845,0,1,0,12,58.92V59Z" style="fill:#78b9eb"/><path d="M41.19,13.86a3.849,3.849,0,0,0,1.81.06V14h.81a5.685,5.685,0,0,0,9.15,0h.81c2.55,0,4.61-1.72,4.61-3.85,0-2.09-2-3.78-4.49-3.84a5.867,5.867,0,0,0-11.04.06,4.2,4.2,0,0,0-.62-.06,3.847,3.847,0,0,0-1.04,7.55Z" style="fill:#78b9eb"/><path d="M6.28,23.79A5.733,5.733,0,0,0,9,23.88V24h1.22a8.915,8.915,0,0,0,6.95,3.5A8.9,8.9,0,0,0,24.11,24h1.22c3.87,0,7-2.61,7-5.83,0-3.17-3.03-5.74-6.81-5.83A9.291,9.291,0,0,0,17.17,6.5a9.315,9.315,0,0,0-8.4,5.93,5.639,5.639,0,0,0-.94-.1A5.834,5.834,0,0,0,6.28,23.79Z" style="fill:#78b9eb"/><path d="M40.926,14.823a4.855,4.855,0,0,0,1.834.148A1,1,0,0,0,43,15h.346a6.655,6.655,0,0,0,10.078,0h.345c3.1,0,5.616-2.174,5.616-4.846,0-2.464-2.083-4.477-4.845-4.8a7,7,0,0,0-6.155-3.895,7.081,7.081,0,0,0-6.128,3.847,4.847,4.847,0,0,0-1.331,9.515Zm-.9-6.469a2.884,2.884,0,0,1,2.665-1,1.006,1.006,0,0,0,1.079-.591,4.872,4.872,0,0,1,9.21-.049,1,1,0,0,0,.893.6c1.937.042,3.513,1.317,3.513,2.841,0,1.569-1.622,2.846-3.616,2.846h-.807a1,1,0,0,0-.781.376,4.7,4.7,0,0,1-7.592,0A1,1,0,0,0,43.807,13h-.421a.983.983,0,0,0-.585-.058,2.844,2.844,0,0,1-3.354-2.179A2.844,2.844,0,0,1,40.025,8.354Z" style="fill:#1a6fb0"/><path d="M6.022,24.759a6.9,6.9,0,0,0,2.658.189A1.022,1.022,0,0,0,9,25h.756a9.857,9.857,0,0,0,7.411,3.5,9.857,9.857,0,0,0,7.41-3.5h.756c4.412,0,8-3.065,8-6.833,0-3.55-3.1-6.436-7.161-6.791a10.139,10.139,0,0,0-9-5.876,10.264,10.264,0,0,0-8.989,5.846c-.112-.008-.227-.013-.345-.013A6.835,6.835,0,0,0,6.022,24.759ZM4.117,15.076a4.882,4.882,0,0,1,4.5-1.661,1.008,1.008,0,0,0,1.08-.591A8.259,8.259,0,0,1,17.167,7.5a8.257,8.257,0,0,1,7.44,5.245,1,1,0,0,0,.893.6c3.216.072,5.833,2.236,5.833,4.826,0,2.665-2.691,4.833-6,4.833H24.109a1,1,0,0,0-.781.376A7.931,7.931,0,0,1,17.167,26.5a7.927,7.927,0,0,1-6.161-3.123A1,1,0,0,0,10.224,23H9.471a1.013,1.013,0,0,0-.67-.1,4.83,4.83,0,0,1-5.716-3.808A4.813,4.813,0,0,1,4.117,15.076Z" style="fill:#1a6fb0"/><path d="M17.6,10.5a4.342,4.342,0,0,1,3.8,2.909,1,1,0,0,0,.919.6.989.989,0,0,0,.395-.082,1,1,0,0,0,.522-1.314A6.3,6.3,0,0,0,17.6,8.5a1,1,0,0,0,0,2Z" style="fill:#1a6fb0"/><path d="M49,18a1,1,0,0,0,0,2,11,11,0,0,1,0,22H3a1,1,0,0,0,0,2H49a13,13,0,0,0,0-26Z" style="fill:#1a6fb0"/><path d="M47,48H21.62a6.565,6.565,0,0,0-8.447,0H3a1,1,0,0,0,0,2h8.45c-.063.1-.135.2-.193.308a4.763,4.763,0,0,0-3.78,1.781,4.844,4.844,0,0,0,2.449,7.734,4.812,4.812,0,0,0,1.834.148A1,1,0,0,0,12,60h.346a6.655,6.655,0,0,0,10.078,0h.345c3.1,0,5.616-2.174,5.616-4.846,0-2.464-2.083-4.477-4.845-4.8-.066-.125-.146-.236-.218-.356H47a5.006,5.006,0,0,1,5,5,5.009,5.009,0,0,1-5,5,1,1,0,0,0,0,2,7.008,7.008,0,0,0,7-7A7.008,7.008,0,0,0,47,48ZM26.385,55.154c0,1.569-1.622,2.846-3.616,2.846h-.807a1,1,0,0,0-.781.376,4.891,4.891,0,0,1-3.8,1.932,4.888,4.888,0,0,1-3.8-1.932A1,1,0,0,0,12.807,58h-.421a.984.984,0,0,0-.585-.058,2.891,2.891,0,0,1-1.348-.048,2.845,2.845,0,0,1-1.428-4.54,2.884,2.884,0,0,1,2.665-1,1,1,0,0,0,1.079-.591,5.114,5.114,0,0,1,4.616-3.3,5.111,5.111,0,0,1,4.594,3.256,1,1,0,0,0,.893.6C24.809,52.355,26.385,53.63,26.385,55.154Z" style="fill:#1a6fb0"/><path d="M31.067,28.64a1,1,0,1,0,1.866.72A4.973,4.973,0,0,1,37.062,26a4.461,4.461,0,0,1,3.287,1.277A5.151,5.151,0,0,1,42,31a5.006,5.006,0,0,1-5,5H3a1,1,0,0,0,0,2H37a7.008,7.008,0,0,0,7-7,7.159,7.159,0,0,0-2.282-5.183A6.482,6.482,0,0,0,36.937,24,6.97,6.97,0,0,0,31.067,28.64Z" style="fill:#1a6fb0"/></g></svg>
