<svg id="line" height="512" viewBox="0 0 64 64" width="512" xmlns="http://www.w3.org/2000/svg"><path d="m56.2 45.3q.047-.494.046-.99a10.68 10.68 0 0 0 -19.787-5.585 8.63 8.63 0 0 0 -4.459-1.225 8.763 8.763 0 0 0 -8.7 7.8 8.763 8.763 0 0 0 -7.8 8.7 1 1 0 0 0 1 1h46.5a1 1 0 0 0 1-1 8.762 8.762 0 0 0 -7.8-8.7z" fill="#c4a2fc"/><g fill="#151a6a"><path d="m24.25 35.875a6.5 6.5 0 1 1 6.5-6.5 6.508 6.508 0 0 1 -6.5 6.5zm0-11a4.5 4.5 0 1 0 4.5 4.5 4.505 4.505 0 0 0 -4.5-4.5z"/><path d="m20.375 49.75a20.4 20.4 0 0 1 -20.375-20.375 1 1 0 0 1 2 0 6.758 6.758 0 0 0 6.75 6.75c.145 0 .29-.005.435-.014a16.533 16.533 0 0 1 -1.435-6.736 20.375 20.375 0 0 1 40.75 0 1 1 0 0 1 -2 0 6.758 6.758 0 0 0 -6.75-6.75c-.145 0-.29 0-.435.014a16.533 16.533 0 0 1 1.435 6.736 20.4 20.4 0 0 1 -20.375 20.375zm-17.045-13.511a18.375 18.375 0 0 0 35.42-6.864 14.51 14.51 0 0 0 -1.81-7.021 1 1 0 0 1 .625-1.454 8.817 8.817 0 0 1 2.185-.275 8.7 8.7 0 0 1 5.42 1.886 18.375 18.375 0 0 0 -35.42 6.864 14.51 14.51 0 0 0 1.81 7.025 1 1 0 0 1 -.625 1.454 8.817 8.817 0 0 1 -2.185.275 8.7 8.7 0 0 1 -5.42-1.89z"/><path d="m13.75 30.375a1 1 0 0 1 -1-1 15.392 15.392 0 0 1 15.375-15.375 1 1 0 0 1 0 2 13.39 13.39 0 0 0 -13.375 13.375 1 1 0 0 1 -1 1z"/></g></svg>